<svg xmlns="http://www.w3.org/2000/svg" xmlns:xlink="http://www.w3.org/1999/xlink" xmlns:lucid="lucid" width="1508.77" height="1082.8"><g transform="translate(-144 -117.19941512619806)" lucid:page-tab-id="0_0"><path d="M0 0h1760v1360H0z" fill="#fff"/><path d="M805 520h160v120H805z" stroke="#000" stroke-width="2" fill="#fff"/><use xlink:href="#a" transform="matrix(1,0,0,1,810,525) translate(59 59.0875)"/><path d="M945 288c0 6.63-26.86 12-60 12s-60-5.37-60-12v-96c0-6.63 26.86-12 60-12s60 5.37 60 12z" stroke="#000" stroke-width="2" fill="#fff"/><path d="M945 192c0 6.63-26.86 12-60 12s-60-5.37-60-12" stroke="#000" stroke-width="2" fill="none"/><use xlink:href="#b" transform="matrix(1,0,0,1,830,208.99999999999994) translate(17.574999999999996 35.9)"/><use xlink:href="#c" transform="matrix(1,0,0,1,830,208.99999999999994) translate(28.549999999999997 57.5)"/><path d="M505 180h160v120H505z" stroke="#000" stroke-width="2" fill="#fff"/><use xlink:href="#d" transform="matrix(1,0,0,1,510,184.99999999999994) translate(36.05 59.0875)"/><path d="M686.97 241h-2.47v-2h2.47zM823 241h-55.08v-2H823z"/><path d="M824 241h-1.03v-2H824zM683.5 244.64L669.24 240l14.26-4.64z"/><path d="M684.5 246l-18.5-6 18.5-6zm-12.03-6l10.03 3.26v-6.52z"/><use xlink:href="#e" transform="matrix(1,0,0,1,686.9704444444443,229.19999999999987) translate(0 14.4)"/><path d="M665 520c-8.84 0-16 26.86-16 60s7.16 60 16 60H521c-8.84 0-16-26.86-16-60s7.16-60 16-60z" stroke="#000" stroke-width="2" fill="#fff"/><use xlink:href="#f" transform="matrix(1,0,0,1,510,525) translate(4.299999999999997 48.775)"/><use xlink:href="#g" transform="matrix(1,0,0,1,510,525) translate(61.2 48.775)"/><use xlink:href="#h" transform="matrix(1,0,0,1,510,525) translate(6.824999999999996 70.375)"/><path d="M586 500.5h-2V398.13h2zm0-123.97h-2V302h2z"/><path d="M586 302.03h-2V301h2zM585 515.76l-4.64-14.26h9.28z"/><path d="M585 519l-6-18.5h12zm-3.26-16.5l3.26 10.03 3.26-10.03z"/><use xlink:href="#i" transform="matrix(1,0,0,1,566.025,376.53333333333325) translate(0 14.4)"/><path d="M1105 360h160v120h-160zm16 0v120m-16-104h160" stroke="#000" stroke-width="2" fill="#fff"/><use xlink:href="#j" transform="matrix(1,0,0,1,1126,381) translate(3.0749999999999957 49.65)"/><use xlink:href="#k" transform="matrix(1,0,0,1,1126,381) translate(67.975 49.65)"/><path d="M972.05 581H967v-2h5.05zm141.95 0h-3v-2h1v-79.5h2z"/><path d="M967.03 581H966v-2h1.03zM1117.64 498.5h-9.28l4.64-14.26z"/><path d="M1119 499.5h-12l6-18.5zm-9.26-2h6.52l-3.26-10.03z"/><use xlink:href="#l" transform="matrix(1,0,0,1,972.0513157894737,569.2) translate(0 14.4)"/><use xlink:href="#m" transform="matrix(1,0,0,1,972.0513157894737,569.2) translate(29 14.4)"/><use xlink:href="#n" transform="matrix(1,0,0,1,972.0513157894737,569.2) translate(72 14.4)"/><path d="M660 550h140v60H660z" stroke="#000" stroke-opacity="0" stroke-width="2" fill="#fff" fill-opacity="0"/><use xlink:href="#o" transform="matrix(1,0,0,1,665,555) translate(10.200000000000003 14.4)"/><use xlink:href="#p" transform="matrix(1,0,0,1,665,555) translate(41.8 14.4)"/><use xlink:href="#q" transform="matrix(1,0,0,1,665,555) translate(12.099999999999994 36)"/><use xlink:href="#r" transform="matrix(1,0,0,1,665,555) translate(38.05 36)"/><use xlink:href="#s" transform="matrix(1,0,0,1,665,555) translate(20.074999999999996 57.6)"/><path d="M805 760h160v120H805z" stroke="#000" stroke-width="2" fill="#fff"/><use xlink:href="#t" transform="matrix(1,0,0,1,810,765) translate(49.55 59.0875)"/><path d="M505 760h160v120H505z" stroke="#000" stroke-width="2" fill="#fff"/><use xlink:href="#u" transform="matrix(1,0,0,1,510,765) translate(38.074999999999996 59.0875)"/><path d="M326 920h558v-20.5h2V922H324V562.13h2zm177-679H326v299.53h-2V239h179z"/><path d="M504 241h-1.03v-2H504zM889.64 898.5h-9.28l4.64-14.26z"/><path d="M891 899.5h-12l6-18.5zm-9.26-2h6.52L885 887.47z"/><use xlink:href="#v" transform="matrix(1,0,0,1,213.075,540.5333333333333) translate(0 14.4)"/><use xlink:href="#w" transform="matrix(1,0,0,1,213.075,540.5333333333333) translate(45 14.4)"/><use xlink:href="#x" transform="matrix(1,0,0,1,213.075,540.5333333333333) translate(110 14.4)"/><use xlink:href="#y" transform="matrix(1,0,0,1,213.075,540.5333333333333) translate(152.95 14.4)"/><use xlink:href="#z" transform="matrix(1,0,0,1,213.075,540.5333333333333) translate(172.95 14.4)"/><path d="M886 740.5h-2v-35.7h2zm0-57.3h-2V642h2z"/><path d="M886 642.03h-2V641h2zM885 755.76l-4.64-14.26h9.28z"/><path d="M885 759l-6-18.5h12zm-3.26-16.5l3.26 10.03 3.26-10.03z"/><use xlink:href="#A" transform="matrix(1,0,0,1,855.5,683.2) translate(0 14.4)"/><path d="M683.83 721H586v19.5h-2V719h99.83zm159.5 0h-100.5v-2h98.5v-77h2z"/><path d="M843.33 642.03h-2V641h2zM585 755.76l-4.64-14.26h9.28z"/><path d="M585 759l-6-18.5h12zm-3.26-16.5l3.26 10.03 3.26-10.03z"/><use xlink:href="#A" transform="matrix(1,0,0,1,683.8333333333334,709.2) translate(0 14.4)"/><path d="M1105 760h160v120h-160z" stroke="#000" stroke-width="2" fill="#fff"/><use xlink:href="#B" transform="matrix(1,0,0,1,1110,765) translate(0.8249999999999886 59.0875)"/><use xlink:href="#C" transform="matrix(1,0,0,1,1110,765) translate(94.675 59.0875)"/><path d="M1186 719v21.5h-2V721h-94.5v-2zm-155.5 0v2H920v-79h2v77z"/><path d="M922 642.03h-2V641h2zM1185 755.76l-4.64-14.26h9.28z"/><path d="M1185 759l-6-18.5h12zm-3.26-16.5l3.26 10.03 3.26-10.03z"/><use xlink:href="#A" transform="matrix(1,0,0,1,1030.5,709.2) translate(0 14.4)"/><path d="M640 1060h220v120H640z" stroke="#000" stroke-width="2" fill="#fff"/><path d="M662 1060v120m176-120v120" stroke="#000" stroke-width="2" fill="none"/><use xlink:href="#D" transform="matrix(1,0,0,1,672.5,1065) translate(-3.375 58.6)"/><path d="M880 1060h230v120H880z" stroke="#000" stroke-width="2" fill="#fff"/><path d="M903 1060v120m184-120v120" stroke="#000" stroke-width="2" fill="none"/><use xlink:href="#E" transform="matrix(1,0,0,1,913.7500000000001,1065) translate(32.55 58.6)"/><use xlink:href="#F" transform="matrix(1,0,0,1,913.7500000000001,1065) translate(85.5 58.6)"/><path d="M1078 1040.5h-2v-59.7h2zm108-81.3h-2V882h2z"/><path d="M1186 882.03h-2V881h2zM1077 1055.76l-4.64-14.26h9.28z"/><path d="M1077 1059l-6-18.5h12zm-3.26-16.5l3.26 10.03 3.26-10.03z"/><use xlink:href="#E" transform="matrix(1,0,0,1,1029.975,959.2) translate(0 14.4)"/><use xlink:href="#G" transform="matrix(1,0,0,1,1029.975,959.2) translate(52.95 14.4)"/><use xlink:href="#H" transform="matrix(1,0,0,1,1029.975,959.2) translate(157.8 14.4)"/><path d="M1346 1121h-216.5v-2H1344V794.13h2zm0-340.47h-2v-160.2h-6.92v-2h8.92zm-379-160.2v-2h176.08v2z"/><path d="M967.03 620.33H966v-2h1.03zM1128.5 1124.64l-14.26-4.64 14.26-4.64z"/><path d="M1129.5 1126l-18.5-6 18.5-6zm-12.03-6l10.03 3.26v-6.52z"/><use xlink:href="#E" transform="matrix(1,0,0,1,1143.0779182593355,608.5333333333333) translate(0 14.4)"/><use xlink:href="#I" transform="matrix(1,0,0,1,1143.0779182593355,608.5333333333333) translate(52.95 14.4)"/><use xlink:href="#J" transform="matrix(1,0,0,1,1143.0779182593355,608.5333333333333) translate(158.10000000000002 14.4)"/><path d="M1265 180c-8.84 0-16 26.86-16 60s7.16 60 16 60h-144c-8.84 0-16-26.86-16-60s7.16-60 16-60z" stroke="#000" stroke-width="2" fill="#fff"/><use xlink:href="#f" transform="matrix(1,0,0,1,1110,184.99999999999994) translate(4.299999999999997 48.775)"/><use xlink:href="#g" transform="matrix(1,0,0,1,1110,184.99999999999994) translate(61.2 48.775)"/><use xlink:href="#K" transform="matrix(1,0,0,1,1110,184.99999999999994) translate(26.299999999999997 70.375)"/><path d="M1157 358v-38.5" stroke="#000" stroke-width="2" fill="none"/><path d="M1158 359h-2v-1.03h2z"/><path d="M1157 304.24l4.64 14.26h-9.28z" stroke="#000" stroke-width="2"/><path d="M1214.33 302v38.5" stroke="#000" stroke-width="2" fill="none"/><path d="M1215.33 302.03h-2V301h2z"/><path d="M1214.33 355.76l-4.63-14.26h9.27z" stroke="#000" stroke-width="2"/><path d="M1036 520h-51.5v-2h49.5V149.8h2zm150-342h-2v-28.2h2z"/><path d="M1186 179h-2v-1.03h2zM983.5 523.64L969.24 519l14.26-4.64z"/><path d="M984.5 525l-18.5-6 18.5-6zm-12.03-6l10.03 3.26v-6.52z"/><use xlink:href="#l" transform="matrix(1,0,0,1,936.0583333333333,128.19999999999993) translate(0 14.4)"/><use xlink:href="#L" transform="matrix(1,0,0,1,936.0583333333333,128.19999999999993) translate(29 14.4)"/><use xlink:href="#M" transform="matrix(1,0,0,1,936.0583333333333,128.19999999999993) translate(66 14.4)"/><use xlink:href="#N" transform="matrix(1,0,0,1,936.0583333333333,128.19999999999993) translate(105.95 14.4)"/><use xlink:href="#O" transform="matrix(1,0,0,1,936.0583333333333,128.19999999999993) translate(149.95 14.4)"/><use xlink:href="#P" transform="matrix(1,0,0,1,936.0583333333333,128.19999999999993) translate(202.95 14.4)"/><use xlink:href="#y" transform="matrix(1,0,0,1,936.0583333333333,128.19999999999993) translate(279.79999999999995 14.4)"/><use xlink:href="#L" transform="matrix(1,0,0,1,936.0583333333333,128.19999999999993) translate(299.79999999999995 14.4)"/><use xlink:href="#q" transform="matrix(1,0,0,1,936.0583333333333,128.19999999999993) translate(336.79999999999995 14.4)"/><use xlink:href="#Q" transform="matrix(1,0,0,1,936.0583333333333,128.19999999999993) translate(362.74999999999994 14.4)"/><use xlink:href="#R" transform="matrix(1,0,0,1,936.0583333333333,128.19999999999993) translate(419.69999999999993 14.4)"/><use xlink:href="#S" transform="matrix(1,0,0,1,936.0583333333333,128.19999999999993) translate(438.6499999999999 14.4)"/><path d="M667.02 520.96H785.5" stroke="#000" stroke-width="2" fill="none"/><path d="M667.05 521.96h-4.03v-.37l.13-.1.36-.17.34-.13.3-.1.3-.05.28-.04 1.3-.04-.02-1h1.05z"/><path d="M800.76 520.96l-14.26 4.63v-9.28z" stroke="#000" stroke-width="2"/><path d="M804 641H684.48" stroke="#000" stroke-width="2" fill="none"/><path d="M804 641h4v1h-4.03v-2h.03z"/><path d="M669.22 641l14.26-4.64v9.28z" stroke="#000" stroke-width="2"/><path d="M677.43 821H667v-2h10.43zm108.07 0h-15.6v-2h15.6z"/><path d="M667.03 821H666v-2h1.03zM800.76 820l-14.26 4.64v-9.28z"/><path d="M804 820l-18.5 6v-12zm-16.5 3.26l10.03-3.26-10.03-3.26z"/><use xlink:href="#T" transform="matrix(1,0,0,1,677.4271604938272,811.8666666666667) translate(0 10.844444444444445)"/><use xlink:href="#U" transform="matrix(1,0,0,1,677.4271604938272,811.8666666666667) translate(35.395061728395056 10.844444444444445)"/><use xlink:href="#V" transform="matrix(1,0,0,1,677.4271604938272,811.8666666666667) translate(72.22098765432098 10.844444444444445)"/><path d="M773.93 971H751v69.5h-2V969h24.93zm158.74 0h-24.94v-2h22.94v-87h2z"/><path d="M932.67 882.03h-2V881h2zM750 1055.76l-4.64-14.26h9.28z"/><path d="M750 1059l-6-18.5h12zm-3.26-16.5l3.26 10.03 3.26-10.03z"/><g><use xlink:href="#W" transform="matrix(1,0,0,1,773.9333333333333,959.2) translate(0 14.4)"/><use xlink:href="#R" transform="matrix(1,0,0,1,773.9333333333333,959.2) translate(49 14.4)"/><use xlink:href="#X" transform="matrix(1,0,0,1,773.9333333333333,959.2) translate(67.95 14.4)"/></g><path d="M805 350h160l-32 120h-96z" stroke="#000" stroke-width="2" fill="#fff"/><g><use xlink:href="#Y" transform="matrix(1,0,0,1,810,354.99999999999994) translate(24.029999999999994 59.0875)"/><use xlink:href="#Z" transform="matrix(1,0,0,1,810,354.99999999999994) translate(85.98 59.0875)"/></g><path d="M885 518v-28.5" stroke="#000" stroke-width="2" fill="none"/><path d="M886 519h-2v-1.03h2z"/><path d="M885 474.24l4.64 14.26h-9.28z" stroke="#000" stroke-width="2"/><path d="M886 348h-2v-12.2h2z"/><path d="M886 349h-2v-1.03h2zM888.24 314.2h-6.48l3.24-9.96z"/><path d="M889.3 314.2h-2.1l-2.2-6.73-2.2 6.73h-2.1L885 301z"/><g><use xlink:href="#aa" transform="matrix(1,0,0,1,752.35,314.20029243690084) translate(0 14.4)"/><use xlink:href="#ab" transform="matrix(1,0,0,1,752.35,314.20029243690084) translate(41.6 14.4)"/><use xlink:href="#ac" transform="matrix(1,0,0,1,752.35,314.20029243690084) translate(113.55000000000001 14.4)"/><use xlink:href="#ad" transform="matrix(1,0,0,1,752.35,314.20029243690084) translate(150.45000000000002 14.4)"/><use xlink:href="#ae" transform="matrix(1,0,0,1,752.35,314.20029243690084) translate(229.40000000000003 14.4)"/></g><path d="M320.38 140H156v679h347v2H154V138h166.38zM886 160.5h-2V140H737.62v-2H886z"/><path d="M504 821h-1.03v-2H504zM885 175.76l-4.64-14.26h9.28z"/><path d="M885 179l-6-18.5h12zm-3.26-16.5l3.26 10.03 3.26-10.03z"/><g><use xlink:href="#af" transform="matrix(1,0,0,1,320.375,128.19941512619806) translate(0 14.4)"/><use xlink:href="#ag" transform="matrix(1,0,0,1,320.375,128.19941512619806) translate(47 14.4)"/><use xlink:href="#ah" transform="matrix(1,0,0,1,320.375,128.19941512619806) translate(98.5 14.4)"/><use xlink:href="#ai" transform="matrix(1,0,0,1,320.375,128.19941512619806) translate(140.1 14.4)"/><use xlink:href="#ac" transform="matrix(1,0,0,1,320.375,128.19941512619806) translate(205.05 14.4)"/><use xlink:href="#aj" transform="matrix(1,0,0,1,320.375,128.19941512619806) translate(241.95000000000002 14.4)"/><use xlink:href="#ak" transform="matrix(1,0,0,1,320.375,128.19941512619806) translate(342.75 14.4)"/><use xlink:href="#J" transform="matrix(1,0,0,1,320.375,128.19941512619806) translate(381.35 14.4)"/></g><path d="M1297.45 788.33H1267v-2h30.45zm128.05 0h-12.95v-2h12.95z"/><path d="M1267.03 788.33H1266v-2h1.03zM1440.76 787.33l-14.26 4.64v-9.27z"/><path d="M1444 787.33l-18.5 6.02v-12.03zm-16.5 3.26l10.03-3.27-10.03-3.26z"/><g><use xlink:href="#al" transform="matrix(1,0,0,1,1297.4515407425881,780.5333333333334) translate(0 9.066666666666668)"/><use xlink:href="#am" transform="matrix(1,0,0,1,1297.4515407425881,780.5333333333334) translate(45.27037037037037 9.066666666666668)"/><use xlink:href="#an" transform="matrix(1,0,0,1,1297.4515407425881,780.5333333333334) translate(90.57222222222222 9.066666666666668)"/></g><path d="M1573 747.33c17.67 0 32 17.9 32 40s-14.33 40-32 40h-96c-17.67 0-32-17.9-32-40s14.33-40 32-40z" stroke="#000" stroke-width="2" fill="#fff"/><g><use xlink:href="#ao" transform="matrix(1,0,0,1,1450,752.3333333333333) translate(36.05 38.4625)"/></g><path d="M1526 745.33h-2V619.47h2zm0-147.46h-2V460.33h-239.5v-2H1526z"/><path d="M1526 746.33h-2v-1.02h2zM1283.5 463.97l-14.26-4.64 14.26-4.63z"/><path d="M1284.5 465.35l-18.5-6.02 18.5-6zm-12.03-6.02l10.03 3.26v-6.53z"/><g><use xlink:href="#ap" transform="matrix(1,0,0,1,1408.225,597.8666666666666) translate(0 14.4)"/><use xlink:href="#aq" transform="matrix(1,0,0,1,1408.225,597.8666666666666) translate(71.9 14.4)"/><use xlink:href="#ar" transform="matrix(1,0,0,1,1408.225,597.8666666666666) translate(109.85000000000001 14.4)"/><use xlink:href="#as" transform="matrix(1,0,0,1,1408.225,597.8666666666666) translate(137.75 14.4)"/><use xlink:href="#at" transform="matrix(1,0,0,1,1408.225,597.8666666666666) translate(178.65 14.4)"/></g><path d="M586 1119h34.5v2H584v-82.7h2zm0-102.3h-2V882h2z"/><path d="M586 882.03h-2V881h2zM635.76 1120l-14.26 4.64v-9.28z"/><path d="M639 1120l-18.5 6v-12zm-16.5 3.26l10.03-3.26-10.03-3.26z"/><g><use xlink:href="#W" transform="matrix(1,0,0,1,518.1,1016.7) translate(0 14.4)"/><use xlink:href="#R" transform="matrix(1,0,0,1,518.1,1016.7) translate(49 14.4)"/><use xlink:href="#X" transform="matrix(1,0,0,1,518.1,1016.7) translate(67.95 14.4)"/></g><defs><path d="M205 0l-28-72H64L36 0H1l101-248h38L239 0h-34zm-38-99l-47-123c-12 45-31 82-46 123h93" id="au"/><path d="M115-194c55 1 70 41 70 98S169 2 115 4C84 4 66-9 55-30l1 105H24l-1-265h31l2 30c10-21 28-34 59-34zm-8 174c40 0 45-34 45-75s-6-73-45-74c-42 0-51 32-51 76 0 43 10 73 51 73" id="av"/><g id="a"><use transform="matrix(0.05,0,0,0.05,0,0)" xlink:href="#au"/><use transform="matrix(0.05,0,0,0.05,12,0)" xlink:href="#av"/><use transform="matrix(0.05,0,0,0.05,22,0)" xlink:href="#av"/></g><path d="M194 0L95-120 63-95V0H30v-248h33v124l119-124h40L117-140 236 0h-42" id="aw"/><path d="M106-169C34-169 62-67 57 0H25v-261h32l-1 103c12-21 28-36 61-36 89 0 53 116 60 194h-32v-121c2-32-8-49-39-48" id="ax"/><path d="M24-231v-30h32v30H24zM24 0v-190h32V0H24" id="ay"/><path d="M117-194c89-4 53 116 60 194h-32v-121c0-31-8-49-39-48C34-167 62-67 57 0H25l-1-190h30c1 10-1 24 2 32 11-22 29-35 61-36" id="az"/><path d="M135-143c-3-34-86-38-87 0 15 53 115 12 119 90S17 21 10-45l28-5c4 36 97 45 98 0-10-56-113-15-118-90-4-57 82-63 122-42 12 7 21 19 24 35" id="aA"/><path d="M85-194c31 0 48 13 60 33l-1-100h32l1 261h-30c-2-10 0-23-3-31C134-8 116 4 85 4 32 4 16-35 15-94c0-66 23-100 70-100zm9 24c-40 0-46 34-46 75 0 40 6 74 45 74 42 0 51-32 51-76 0-42-9-74-50-73" id="aB"/><path d="M100-194c63 0 86 42 84 106H49c0 40 14 67 53 68 26 1 43-12 49-29l28 8c-11 28-37 45-77 45C44 4 14-33 15-96c1-61 26-98 85-98zm52 81c6-60-76-77-97-28-3 7-6 17-6 28h103" id="aC"/><path d="M114-163C36-179 61-72 57 0H25l-1-190h30c1 12-1 29 2 39 6-27 23-49 58-41v29" id="aD"/><g id="b"><use transform="matrix(0.05,0,0,0.05,0,0)" xlink:href="#aw"/><use transform="matrix(0.05,0,0,0.05,12,0)" xlink:href="#ax"/><use transform="matrix(0.05,0,0,0.05,22,0)" xlink:href="#ay"/><use transform="matrix(0.05,0,0,0.05,25.950000000000003,0)" xlink:href="#az"/><use transform="matrix(0.05,0,0,0.05,35.95,0)" xlink:href="#aA"/><use transform="matrix(0.05,0,0,0.05,44.95,0)" xlink:href="#ay"/><use transform="matrix(0.05,0,0,0.05,48.900000000000006,0)" xlink:href="#aB"/><use transform="matrix(0.05,0,0,0.05,58.900000000000006,0)" xlink:href="#aC"/><use transform="matrix(0.05,0,0,0.05,68.9,0)" xlink:href="#aD"/></g><path d="M185-189c-5-48-123-54-124 2 14 75 158 14 163 119 3 78-121 87-175 55-17-10-28-26-33-46l33-7c5 56 141 63 141-1 0-78-155-14-162-118-5-82 145-84 179-34 5 7 8 16 11 25" id="aE"/><path d="M108 0H70L1-190h34L89-25l56-165h34" id="aF"/><g id="c"><use transform="matrix(0.05,0,0,0.05,0,0)" xlink:href="#aE"/><use transform="matrix(0.05,0,0,0.05,12,0)" xlink:href="#aC"/><use transform="matrix(0.05,0,0,0.05,22,0)" xlink:href="#aD"/><use transform="matrix(0.05,0,0,0.05,27.950000000000003,0)" xlink:href="#aF"/><use transform="matrix(0.05,0,0,0.05,36.95,0)" xlink:href="#aC"/><use transform="matrix(0.05,0,0,0.05,46.95,0)" xlink:href="#aD"/></g><path d="M206 0h-36l-40-164L89 0H53L-1-190h32L70-26l43-164h34l41 164 42-164h31" id="aG"/><path d="M101-234c-31-9-42 10-38 44h38v23H63V0H32v-167H5v-23h27c-7-52 17-82 69-68v24" id="aH"/><path d="M59-47c-2 24 18 29 38 22v24C64 9 27 4 27-40v-127H5v-23h24l9-43h21v43h35v23H59v120" id="aI"/><path d="M100-194c62-1 85 37 85 99 1 63-27 99-86 99S16-35 15-95c0-66 28-99 85-99zM99-20c44 1 53-31 53-75 0-43-8-75-51-75s-53 32-53 75 10 74 51 75" id="aJ"/><path d="M84 4C-5 8 30-112 23-190h32v120c0 31 7 50 39 49 72-2 45-101 50-169h31l1 190h-30c-1-10 1-25-2-33-11 22-28 36-60 37" id="aK"/><g id="d"><use transform="matrix(0.05,0,0,0.05,0,0)" xlink:href="#aE"/><use transform="matrix(0.05,0,0,0.05,12,0)" xlink:href="#aG"/><use transform="matrix(0.05,0,0,0.05,24.950000000000003,0)" xlink:href="#ay"/><use transform="matrix(0.05,0,0,0.05,28.900000000000002,0)" xlink:href="#aH"/><use transform="matrix(0.05,0,0,0.05,33.900000000000006,0)" xlink:href="#aI"/><use transform="matrix(0.05,0,0,0.05,38.900000000000006,0)" xlink:href="#aA"/><use transform="matrix(0.05,0,0,0.05,47.900000000000006,0)" xlink:href="#aJ"/><use transform="matrix(0.05,0,0,0.05,57.900000000000006,0)" xlink:href="#aK"/><use transform="matrix(0.05,0,0,0.05,67.9,0)" xlink:href="#av"/></g><path d="M233-177c-1 41-23 64-60 70L243 0h-38l-65-103H63V0H30v-248c88 3 205-21 203 71zM63-129c60-2 137 13 137-47 0-61-80-42-137-45v92" id="aL"/><g id="e"><use transform="matrix(0.05,0,0,0.05,0,0)" xlink:href="#aL"/><use transform="matrix(0.05,0,0,0.05,12.950000000000001,0)" xlink:href="#aC"/><use transform="matrix(0.05,0,0,0.05,22.950000000000003,0)" xlink:href="#aA"/><use transform="matrix(0.05,0,0,0.05,31.950000000000003,0)" xlink:href="#av"/><use transform="matrix(0.05,0,0,0.05,41.95,0)" xlink:href="#aJ"/><use transform="matrix(0.05,0,0,0.05,51.95,0)" xlink:href="#az"/><use transform="matrix(0.05,0,0,0.05,61.95,0)" xlink:href="#aA"/><use transform="matrix(0.05,0,0,0.05,70.95,0)" xlink:href="#aC"/></g><path d="M143 4C61 4 22-44 18-125c-5-107 100-154 193-111 17 8 29 25 37 43l-32 9c-13-25-37-40-76-40-61 0-88 39-88 99 0 61 29 100 91 101 35 0 62-11 79-27v-45h-74v-28h105v86C228-13 192 4 143 4" id="aM"/><path d="M24 0v-261h32V0H24" id="aN"/><path d="M115-194c53 0 69 39 70 98 0 66-23 100-70 100C84 3 66-7 56-30L54 0H23l1-261h32v101c10-23 28-34 59-34zm-8 174c40 0 45-34 45-75 0-40-5-75-45-74-42 0-51 32-51 76 0 43 10 73 51 73" id="aO"/><path d="M141-36C126-15 110 5 73 4 37 3 15-17 15-53c-1-64 63-63 125-63 3-35-9-54-41-54-24 1-41 7-42 31l-33-3c5-37 33-52 76-52 45 0 72 20 72 64v82c-1 20 7 32 28 27v20c-31 9-61-2-59-35zM48-53c0 20 12 33 32 33 41-3 63-29 60-74-43 2-92-5-92 41" id="aP"/><g id="f"><use transform="matrix(0.05,0,0,0.05,0,0)" xlink:href="#aM"/><use transform="matrix(0.05,0,0,0.05,14,0)" xlink:href="#aN"/><use transform="matrix(0.05,0,0,0.05,17.95,0)" xlink:href="#aJ"/><use transform="matrix(0.05,0,0,0.05,27.950000000000003,0)" xlink:href="#aO"/><use transform="matrix(0.05,0,0,0.05,37.95,0)" xlink:href="#aP"/><use transform="matrix(0.05,0,0,0.05,47.95,0)" xlink:href="#aN"/></g><path d="M137 0h-34L2-248h35l83 218 83-218h36" id="aQ"/><g id="g"><use transform="matrix(0.05,0,0,0.05,0,0)" xlink:href="#aQ"/><use transform="matrix(0.05,0,0,0.05,10.65,0)" xlink:href="#aP"/><use transform="matrix(0.05,0,0,0.05,20.65,0)" xlink:href="#aD"/><use transform="matrix(0.05,0,0,0.05,26.599999999999994,0)" xlink:href="#ay"/><use transform="matrix(0.05,0,0,0.05,30.549999999999997,0)" xlink:href="#aP"/><use transform="matrix(0.05,0,0,0.05,40.55,0)" xlink:href="#aO"/><use transform="matrix(0.05,0,0,0.05,50.55,0)" xlink:href="#aN"/><use transform="matrix(0.05,0,0,0.05,54.5,0)" xlink:href="#aC"/><use transform="matrix(0.05,0,0,0.05,64.5,0)" xlink:href="#aA"/></g><path d="M87 75C49 33 22-17 22-94c0-76 28-126 65-167h31c-38 41-64 92-64 168S80 34 118 75H87" id="aR"/><path d="M127-220V0H93v-220H8v-28h204v28h-85" id="aS"/><path d="M30 0v-248h187v28H63v79h144v27H63v87h162V0H30" id="aT"/><path d="M240 0l2-218c-23 76-54 145-80 218h-23L58-218 59 0H30v-248h44l77 211c21-75 51-140 76-211h43V0h-30" id="aU"/><path d="M30-248c87 1 191-15 191 75 0 78-77 80-158 76V0H30v-248zm33 125c57 0 124 11 124-50 0-59-68-47-124-48v98" id="aV"/><path d="M140-251c81 0 123 46 123 126C263-46 219 4 140 4 59 4 17-45 17-125s42-126 123-126zm0 227c63 0 89-41 89-101s-29-99-89-99c-61 0-89 39-89 99S79-25 140-24" id="aW"/><path d="M137-103V0h-34v-103L8-248h37l75 118 75-118h37" id="aX"/><path d="M33-261c38 41 65 92 65 168S71 34 33 75H2C39 34 66-17 66-93S39-220 2-261h31" id="aY"/><g id="h"><use transform="matrix(0.05,0,0,0.05,0,0)" xlink:href="#aR"/><use transform="matrix(0.05,0,0,0.05,5.95,0)" xlink:href="#aS"/><use transform="matrix(0.05,0,0,0.05,16.900000000000002,0)" xlink:href="#aT"/><use transform="matrix(0.05,0,0,0.05,28.900000000000002,0)" xlink:href="#aU"/><use transform="matrix(0.05,0,0,0.05,43.85,0)" xlink:href="#aV"/><use transform="matrix(0.05,0,0,0.05,55.85,0)" xlink:href="#aW"/><use transform="matrix(0.05,0,0,0.05,69.85,0)" xlink:href="#aL"/><use transform="matrix(0.05,0,0,0.05,82.8,0)" xlink:href="#au"/><use transform="matrix(0.05,0,0,0.05,94.8,0)" xlink:href="#aL"/><use transform="matrix(0.05,0,0,0.05,107.4,0)" xlink:href="#aX"/><use transform="matrix(0.05,0,0,0.05,119.4,0)" xlink:href="#aY"/></g><path d="M30-248c118-7 216 8 213 122C240-48 200 0 122 0H30v-248zM63-27c89 8 146-16 146-99s-60-101-146-95v194" id="aZ"/><g id="i"><use transform="matrix(0.05,0,0,0.05,0,0)" xlink:href="#aZ"/><use transform="matrix(0.05,0,0,0.05,12.950000000000001,0)" xlink:href="#aP"/><use transform="matrix(0.05,0,0,0.05,22.950000000000003,0)" xlink:href="#aI"/><use transform="matrix(0.05,0,0,0.05,27.950000000000003,0)" xlink:href="#aP"/></g><path d="M33 0v-248h34V0H33" id="ba"/><g id="j"><use transform="matrix(0.05,0,0,0.05,0,0)" xlink:href="#ba"/><use transform="matrix(0.05,0,0,0.05,5,0)" xlink:href="#az"/><use transform="matrix(0.05,0,0,0.05,15,0)" xlink:href="#aI"/><use transform="matrix(0.05,0,0,0.05,20,0)" xlink:href="#aC"/><use transform="matrix(0.05,0,0,0.05,30,0)" xlink:href="#aD"/><use transform="matrix(0.05,0,0,0.05,35.95,0)" xlink:href="#az"/><use transform="matrix(0.05,0,0,0.05,45.95,0)" xlink:href="#aP"/><use transform="matrix(0.05,0,0,0.05,55.95,0)" xlink:href="#aN"/></g><path d="M177-190C167-65 218 103 67 71c-23-6-38-20-44-43l32-5c15 47 100 32 89-28v-30C133-14 115 1 83 1 29 1 15-40 15-95c0-56 16-97 71-98 29-1 48 16 59 35 1-10 0-23 2-32h30zM94-22c36 0 50-32 50-73 0-42-14-75-50-75-39 0-46 34-46 75s6 73 46 73" id="bb"/><g id="k"><use transform="matrix(0.05,0,0,0.05,0,0)" xlink:href="#aE"/><use transform="matrix(0.05,0,0,0.05,12,0)" xlink:href="#aI"/><use transform="matrix(0.05,0,0,0.05,17,0)" xlink:href="#aJ"/><use transform="matrix(0.05,0,0,0.05,27,0)" xlink:href="#aD"/><use transform="matrix(0.05,0,0,0.05,32.95,0)" xlink:href="#aP"/><use transform="matrix(0.05,0,0,0.05,42.95,0)" xlink:href="#bb"/><use transform="matrix(0.05,0,0,0.05,52.95,0)" xlink:href="#aC"/></g><g id="l"><use transform="matrix(0.05,0,0,0.05,0,0)" xlink:href="#aW"/><use transform="matrix(0.05,0,0,0.05,14,0)" xlink:href="#az"/></g><g id="m"><use transform="matrix(0.05,0,0,0.05,0,0)" xlink:href="#aA"/><use transform="matrix(0.05,0,0,0.05,9,0)" xlink:href="#aP"/><use transform="matrix(0.05,0,0,0.05,19,0)" xlink:href="#aF"/><use transform="matrix(0.05,0,0,0.05,28,0)" xlink:href="#aC"/></g><path d="M145-31C134-9 116 4 85 4 32 4 16-35 15-94c0-59 17-99 70-100 32-1 48 14 60 33 0-11-1-24 2-32h30l-1 268h-32zM93-21c41 0 51-33 51-76s-8-73-50-73c-40 0-46 35-46 75s5 74 45 74" id="bc"/><g id="n"><use transform="matrix(0.05,0,0,0.05,0,0)" xlink:href="#aL"/><use transform="matrix(0.05,0,0,0.05,12.950000000000001,0)" xlink:href="#aC"/><use transform="matrix(0.05,0,0,0.05,22.950000000000003,0)" xlink:href="#bc"/><use transform="matrix(0.05,0,0,0.05,32.95,0)" xlink:href="#aK"/><use transform="matrix(0.05,0,0,0.05,42.95,0)" xlink:href="#aC"/><use transform="matrix(0.05,0,0,0.05,52.95,0)" xlink:href="#aA"/><use transform="matrix(0.05,0,0,0.05,61.95,0)" xlink:href="#aI"/></g><g id="o"><use transform="matrix(0.05,0,0,0.05,0,0)" xlink:href="#aQ"/><use transform="matrix(0.05,0,0,0.05,10.65,0)" xlink:href="#aP"/><use transform="matrix(0.05,0,0,0.05,20.65,0)" xlink:href="#aD"/></g><path d="M141 0L90-78 38 0H4l68-98-65-92h35l48 74 47-74h35l-64 92 68 98h-35" id="bd"/><path d="M96-169c-40 0-48 33-48 73s9 75 48 75c24 0 41-14 43-38l32 2c-6 37-31 61-74 61-59 0-76-41-82-99-10-93 101-131 147-64 4 7 5 14 7 22l-32 3c-4-21-16-35-41-35" id="be"/><g id="p"><use transform="matrix(0.05,0,0,0.05,0,0)" xlink:href="#aC"/><use transform="matrix(0.05,0,0,0.05,10,0)" xlink:href="#bd"/><use transform="matrix(0.05,0,0,0.05,19,0)" xlink:href="#be"/><use transform="matrix(0.05,0,0,0.05,28,0)" xlink:href="#ax"/><use transform="matrix(0.05,0,0,0.05,38,0)" xlink:href="#aP"/><use transform="matrix(0.05,0,0,0.05,48,0)" xlink:href="#az"/><use transform="matrix(0.05,0,0,0.05,58,0)" xlink:href="#bb"/><use transform="matrix(0.05,0,0,0.05,68,0)" xlink:href="#aC"/></g><g id="q"><use transform="matrix(0.05,0,0,0.05,0,0)" xlink:href="#aH"/><use transform="matrix(0.05,0,0,0.05,5,0)" xlink:href="#aJ"/><use transform="matrix(0.05,0,0,0.05,15,0)" xlink:href="#aD"/></g><path d="M179-190L93 31C79 59 56 82 12 73V49c39 6 53-20 64-50L1-190h34L92-34l54-156h33" id="bf"/><g id="r"><use transform="matrix(0.05,0,0,0.05,0,0)" xlink:href="#aB"/><use transform="matrix(0.05,0,0,0.05,10,0)" xlink:href="#ay"/><use transform="matrix(0.05,0,0,0.05,13.949999999999998,0)" xlink:href="#aA"/><use transform="matrix(0.05,0,0,0.05,22.95,0)" xlink:href="#av"/><use transform="matrix(0.05,0,0,0.05,32.95,0)" xlink:href="#aN"/><use transform="matrix(0.05,0,0,0.05,36.900000000000006,0)" xlink:href="#aP"/><use transform="matrix(0.05,0,0,0.05,46.900000000000006,0)" xlink:href="#bf"/><use transform="matrix(0.05,0,0,0.05,55.900000000000006,0)" xlink:href="#ay"/><use transform="matrix(0.05,0,0,0.05,59.85,0)" xlink:href="#az"/><use transform="matrix(0.05,0,0,0.05,69.85000000000001,0)" xlink:href="#bb"/></g><path d="M210-169c-67 3-38 105-44 169h-31v-121c0-29-5-50-35-48C34-165 62-65 56 0H25l-1-190h30c1 10-1 24 2 32 10-44 99-50 107 0 11-21 27-35 58-36 85-2 47 119 55 194h-31v-121c0-29-5-49-35-48" id="bg"/><g id="s"><use transform="matrix(0.05,0,0,0.05,0,0)" xlink:href="#ba"/><use transform="matrix(0.05,0,0,0.05,5,0)" xlink:href="#az"/><use transform="matrix(0.05,0,0,0.05,15,0)" xlink:href="#aH"/><use transform="matrix(0.05,0,0,0.05,20,0)" xlink:href="#aJ"/><use transform="matrix(0.05,0,0,0.05,30,0)" xlink:href="#aD"/><use transform="matrix(0.05,0,0,0.05,35.95,0)" xlink:href="#bg"/><use transform="matrix(0.05,0,0,0.05,50.900000000000006,0)" xlink:href="#aP"/><use transform="matrix(0.05,0,0,0.05,60.900000000000006,0)" xlink:href="#aI"/><use transform="matrix(0.05,0,0,0.05,65.9,0)" xlink:href="#ay"/><use transform="matrix(0.05,0,0,0.05,69.85000000000001,0)" xlink:href="#aJ"/><use transform="matrix(0.05,0,0,0.05,79.85000000000001,0)" xlink:href="#az"/></g><g id="t"><use transform="matrix(0.05,0,0,0.05,0,0)" xlink:href="#aV"/><use transform="matrix(0.05,0,0,0.05,12,0)" xlink:href="#aN"/><use transform="matrix(0.05,0,0,0.05,15.949999999999998,0)" xlink:href="#aP"/><use transform="matrix(0.05,0,0,0.05,25.950000000000003,0)" xlink:href="#bf"/><use transform="matrix(0.05,0,0,0.05,34.95,0)" xlink:href="#aC"/><use transform="matrix(0.05,0,0,0.05,44.95,0)" xlink:href="#aD"/></g><path d="M63-220v92h138v28H63V0H30v-248h175v28H63" id="bh"/><g id="u"><use transform="matrix(0.05,0,0,0.05,0,0)" xlink:href="#bh"/><use transform="matrix(0.05,0,0,0.05,10.950000000000001,0)" xlink:href="#aP"/><use transform="matrix(0.05,0,0,0.05,20.950000000000003,0)" xlink:href="#aF"/><use transform="matrix(0.05,0,0,0.05,29.950000000000003,0)" xlink:href="#aJ"/><use transform="matrix(0.05,0,0,0.05,39.95,0)" xlink:href="#aD"/><use transform="matrix(0.05,0,0,0.05,45.900000000000006,0)" xlink:href="#ay"/><use transform="matrix(0.05,0,0,0.05,49.85000000000001,0)" xlink:href="#aI"/><use transform="matrix(0.05,0,0,0.05,54.85,0)" xlink:href="#aC"/><use transform="matrix(0.05,0,0,0.05,64.85000000000001,0)" xlink:href="#aA"/></g><g id="v"><use transform="matrix(0.05,0,0,0.05,0,0)" xlink:href="#aV"/><use transform="matrix(0.05,0,0,0.05,12,0)" xlink:href="#aP"/><use transform="matrix(0.05,0,0,0.05,22,0)" xlink:href="#aA"/><use transform="matrix(0.05,0,0,0.05,31,0)" xlink:href="#aA"/></g><g id="w"><use transform="matrix(0.05,0,0,0.05,0,0)" xlink:href="#az"/><use transform="matrix(0.05,0,0,0.05,10,0)" xlink:href="#aC"/><use transform="matrix(0.05,0,0,0.05,20,0)" xlink:href="#aC"/><use transform="matrix(0.05,0,0,0.05,30,0)" xlink:href="#aB"/><use transform="matrix(0.05,0,0,0.05,40,0)" xlink:href="#aC"/><use transform="matrix(0.05,0,0,0.05,50,0)" xlink:href="#aB"/></g><g id="x"><use transform="matrix(0.05,0,0,0.05,0,0)" xlink:href="#aZ"/><use transform="matrix(0.05,0,0,0.05,12.950000000000001,0)" xlink:href="#aP"/><use transform="matrix(0.05,0,0,0.05,22.950000000000003,0)" xlink:href="#aI"/><use transform="matrix(0.05,0,0,0.05,27.950000000000003,0)" xlink:href="#aP"/></g><g id="y"><use transform="matrix(0.05,0,0,0.05,0,0)" xlink:href="#aI"/><use transform="matrix(0.05,0,0,0.05,5,0)" xlink:href="#aJ"/></g><g id="z"><use transform="matrix(0.05,0,0,0.05,0,0)" xlink:href="#aV"/><use transform="matrix(0.05,0,0,0.05,12,0)" xlink:href="#aN"/><use transform="matrix(0.05,0,0,0.05,15.949999999999998,0)" xlink:href="#aP"/><use transform="matrix(0.05,0,0,0.05,25.950000000000003,0)" xlink:href="#bf"/><use transform="matrix(0.05,0,0,0.05,34.95,0)" xlink:href="#aC"/><use transform="matrix(0.05,0,0,0.05,44.95,0)" xlink:href="#aD"/></g><path d="M30 0v-248h33v221h125V0H30" id="bi"/><g id="A"><use transform="matrix(0.05,0,0,0.05,0,0)" xlink:href="#bi"/><use transform="matrix(0.05,0,0,0.05,10,0)" xlink:href="#aP"/><use transform="matrix(0.05,0,0,0.05,20,0)" xlink:href="#aK"/><use transform="matrix(0.05,0,0,0.05,30,0)" xlink:href="#az"/><use transform="matrix(0.05,0,0,0.05,40,0)" xlink:href="#be"/><use transform="matrix(0.05,0,0,0.05,49,0)" xlink:href="#ax"/></g><g id="B"><use transform="matrix(0.05,0,0,0.05,0,0)" xlink:href="#aZ"/><use transform="matrix(0.05,0,0,0.05,12.950000000000001,0)" xlink:href="#aJ"/><use transform="matrix(0.05,0,0,0.05,22.950000000000003,0)" xlink:href="#aG"/><use transform="matrix(0.05,0,0,0.05,35.900000000000006,0)" xlink:href="#az"/><use transform="matrix(0.05,0,0,0.05,45.900000000000006,0)" xlink:href="#aN"/><use transform="matrix(0.05,0,0,0.05,49.85000000000001,0)" xlink:href="#aJ"/><use transform="matrix(0.05,0,0,0.05,59.85,0)" xlink:href="#aP"/><use transform="matrix(0.05,0,0,0.05,69.85000000000001,0)" xlink:href="#aB"/><use transform="matrix(0.05,0,0,0.05,79.85000000000001,0)" xlink:href="#aA"/></g><g id="C"><use transform="matrix(0.05,0,0,0.05,0,0)" xlink:href="#aQ"/><use transform="matrix(0.05,0,0,0.05,11.65,0)" xlink:href="#ay"/><use transform="matrix(0.05,0,0,0.05,15.600000000000001,0)" xlink:href="#aC"/><use transform="matrix(0.05,0,0,0.05,25.6,0)" xlink:href="#aG"/><use transform="matrix(0.05,0,0,0.05,38.550000000000004,0)" xlink:href="#aC"/><use transform="matrix(0.05,0,0,0.05,48.550000000000004,0)" xlink:href="#aD"/></g><path d="M0 4l72-265h28L28 4H0" id="bj"/><path d="M160-131c35 5 61 23 61 61C221 17 115-2 30 0v-248c76 3 177-17 177 60 0 33-19 50-47 57zm-97-11c50-1 110 9 110-42 0-47-63-36-110-37v79zm0 115c55-2 124 14 124-45 0-56-70-42-124-44v89" id="bk"/><path d="M266 0h-40l-56-210L115 0H75L2-248h35L96-30l15-64 43-154h32l59 218 59-218h35" id="bl"/><g id="D"><use transform="matrix(0.05,0,0,0.05,0,0)" xlink:href="#aE"/><use transform="matrix(0.05,0,0,0.05,12,0)" xlink:href="#au"/><use transform="matrix(0.05,0,0,0.05,24,0)" xlink:href="#bh"/><use transform="matrix(0.05,0,0,0.05,33.95,0)" xlink:href="#au"/><use transform="matrix(0.05,0,0,0.05,45.95,0)" xlink:href="#aL"/><use transform="matrix(0.05,0,0,0.05,58.900000000000006,0)" xlink:href="#ba"/><use transform="matrix(0.05,0,0,0.05,63.900000000000006,0)" xlink:href="#bj"/><use transform="matrix(0.05,0,0,0.05,68.9,0)" xlink:href="#bk"/><use transform="matrix(0.05,0,0,0.05,80.9,0)" xlink:href="#aL"/><use transform="matrix(0.05,0,0,0.05,93.85000000000001,0)" xlink:href="#aW"/><use transform="matrix(0.05,0,0,0.05,107.85000000000001,0)" xlink:href="#bl"/><use transform="matrix(0.05,0,0,0.05,124.80000000000001,0)" xlink:href="#aE"/><use transform="matrix(0.05,0,0,0.05,136.8,0)" xlink:href="#aT"/><use transform="matrix(0.05,0,0,0.05,148.8,0)" xlink:href="#aL"/></g><g id="E"><use transform="matrix(0.05,0,0,0.05,0,0)" xlink:href="#aE"/><use transform="matrix(0.05,0,0,0.05,12,0)" xlink:href="#ax"/><use transform="matrix(0.05,0,0,0.05,22,0)" xlink:href="#aP"/><use transform="matrix(0.05,0,0,0.05,32,0)" xlink:href="#aD"/><use transform="matrix(0.05,0,0,0.05,37.95,0)" xlink:href="#aC"/></g><g id="F"><use transform="matrix(0.05,0,0,0.05,0,0)" xlink:href="#aU"/><use transform="matrix(0.05,0,0,0.05,14.950000000000001,0)" xlink:href="#aC"/><use transform="matrix(0.05,0,0,0.05,24.950000000000003,0)" xlink:href="#az"/><use transform="matrix(0.05,0,0,0.05,34.95,0)" xlink:href="#aK"/></g><g id="G"><use transform="matrix(0.05,0,0,0.05,0,0)" xlink:href="#aZ"/><use transform="matrix(0.05,0,0,0.05,12.950000000000001,0)" xlink:href="#aJ"/><use transform="matrix(0.05,0,0,0.05,22.950000000000003,0)" xlink:href="#aG"/><use transform="matrix(0.05,0,0,0.05,35.900000000000006,0)" xlink:href="#az"/><use transform="matrix(0.05,0,0,0.05,45.900000000000006,0)" xlink:href="#aN"/><use transform="matrix(0.05,0,0,0.05,49.85000000000001,0)" xlink:href="#aJ"/><use transform="matrix(0.05,0,0,0.05,59.85,0)" xlink:href="#aP"/><use transform="matrix(0.05,0,0,0.05,69.85000000000001,0)" xlink:href="#aB"/><use transform="matrix(0.05,0,0,0.05,79.85000000000001,0)" xlink:href="#aC"/><use transform="matrix(0.05,0,0,0.05,89.85000000000001,0)" xlink:href="#aB"/></g><path d="M143 0L79-87 56-68V0H24v-261h32v163l83-92h37l-77 82L181 0h-38" id="bm"/><g id="H"><use transform="matrix(0.05,0,0,0.05,0,0)" xlink:href="#aS"/><use transform="matrix(0.05,0,0,0.05,10.3,0)" xlink:href="#aD"/><use transform="matrix(0.05,0,0,0.05,16.25,0)" xlink:href="#aP"/><use transform="matrix(0.05,0,0,0.05,26.25,0)" xlink:href="#be"/><use transform="matrix(0.05,0,0,0.05,35.25,0)" xlink:href="#bm"/></g><g id="I"><use transform="matrix(0.05,0,0,0.05,0,0)" xlink:href="#au"/><use transform="matrix(0.05,0,0,0.05,12,0)" xlink:href="#aN"/><use transform="matrix(0.05,0,0,0.05,15.949999999999998,0)" xlink:href="#aO"/><use transform="matrix(0.05,0,0,0.05,25.950000000000003,0)" xlink:href="#aK"/><use transform="matrix(0.05,0,0,0.05,35.95,0)" xlink:href="#bg"/><use transform="matrix(0.05,0,0,0.05,50.900000000000006,0)" xlink:href="#bj"/><use transform="matrix(0.05,0,0,0.05,55.900000000000006,0)" xlink:href="#aS"/><use transform="matrix(0.05,0,0,0.05,66.2,0)" xlink:href="#aD"/><use transform="matrix(0.05,0,0,0.05,72.15,0)" xlink:href="#aP"/><use transform="matrix(0.05,0,0,0.05,82.15,0)" xlink:href="#be"/><use transform="matrix(0.05,0,0,0.05,91.15,0)" xlink:href="#bm"/></g><path d="M232-93c-1 65-40 97-104 97C67 4 28-28 28-90v-158h33c8 89-33 224 67 224 102 0 64-133 71-224h33v155" id="bn"/><g id="J"><use transform="matrix(0.05,0,0,0.05,0,0)" xlink:href="#bn"/><use transform="matrix(0.05,0,0,0.05,12.950000000000001,0)" xlink:href="#aL"/><use transform="matrix(0.05,0,0,0.05,25.900000000000002,0)" xlink:href="#bi"/></g><g id="K"><use transform="matrix(0.05,0,0,0.05,0,0)" xlink:href="#aR"/><use transform="matrix(0.05,0,0,0.05,5.95,0)" xlink:href="#aE"/><use transform="matrix(0.05,0,0,0.05,17.95,0)" xlink:href="#aS"/><use transform="matrix(0.05,0,0,0.05,28.549999999999997,0)" xlink:href="#aW"/><use transform="matrix(0.05,0,0,0.05,42.55,0)" xlink:href="#aL"/><use transform="matrix(0.05,0,0,0.05,55.5,0)" xlink:href="#aT"/><use transform="matrix(0.05,0,0,0.05,67.5,0)" xlink:href="#aZ"/><use transform="matrix(0.05,0,0,0.05,80.45,0)" xlink:href="#aY"/></g><g id="L"><use transform="matrix(0.05,0,0,0.05,0,0)" xlink:href="#au"/><use transform="matrix(0.05,0,0,0.05,12,0)" xlink:href="#av"/><use transform="matrix(0.05,0,0,0.05,22,0)" xlink:href="#av"/></g><g id="M"><use transform="matrix(0.05,0,0,0.05,0,0)" xlink:href="#aA"/><use transform="matrix(0.05,0,0,0.05,9,0)" xlink:href="#aI"/><use transform="matrix(0.05,0,0,0.05,14,0)" xlink:href="#aP"/><use transform="matrix(0.05,0,0,0.05,24,0)" xlink:href="#aD"/><use transform="matrix(0.05,0,0,0.05,29.950000000000003,0)" xlink:href="#aI"/></g><g id="N"><use transform="matrix(0.05,0,0,0.05,0,0)" xlink:href="#av"/><use transform="matrix(0.05,0,0,0.05,10,0)" xlink:href="#aK"/><use transform="matrix(0.05,0,0,0.05,20,0)" xlink:href="#aA"/><use transform="matrix(0.05,0,0,0.05,29,0)" xlink:href="#ax"/></g><g id="O"><use transform="matrix(0.05,0,0,0.05,0,0)" xlink:href="#aA"/><use transform="matrix(0.05,0,0,0.05,9,0)" xlink:href="#aP"/><use transform="matrix(0.05,0,0,0.05,19,0)" xlink:href="#aF"/><use transform="matrix(0.05,0,0,0.05,28,0)" xlink:href="#aC"/><use transform="matrix(0.05,0,0,0.05,38,0)" xlink:href="#aB"/></g><g id="P"><use transform="matrix(0.05,0,0,0.05,0,0)" xlink:href="#aF"/><use transform="matrix(0.05,0,0,0.05,9,0)" xlink:href="#aP"/><use transform="matrix(0.05,0,0,0.05,19,0)" xlink:href="#aD"/><use transform="matrix(0.05,0,0,0.05,24.95,0)" xlink:href="#ay"/><use transform="matrix(0.05,0,0,0.05,28.899999999999995,0)" xlink:href="#aP"/><use transform="matrix(0.05,0,0,0.05,38.9,0)" xlink:href="#aO"/><use transform="matrix(0.05,0,0,0.05,48.9,0)" xlink:href="#aN"/><use transform="matrix(0.05,0,0,0.05,52.85,0)" xlink:href="#aC"/><use transform="matrix(0.05,0,0,0.05,62.85,0)" xlink:href="#aA"/></g><g id="Q"><use transform="matrix(0.05,0,0,0.05,0,0)" xlink:href="#aA"/><use transform="matrix(0.05,0,0,0.05,9,0)" xlink:href="#aP"/><use transform="matrix(0.05,0,0,0.05,19,0)" xlink:href="#aF"/><use transform="matrix(0.05,0,0,0.05,28,0)" xlink:href="#ay"/><use transform="matrix(0.05,0,0,0.05,31.950000000000003,0)" xlink:href="#az"/><use transform="matrix(0.05,0,0,0.05,41.95,0)" xlink:href="#bb"/></g><g id="R"><use transform="matrix(0.05,0,0,0.05,0,0)" xlink:href="#ay"/><use transform="matrix(0.05,0,0,0.05,3.95,0)" xlink:href="#az"/></g><g id="S"><use transform="matrix(0.05,0,0,0.05,0,0)" xlink:href="#aS"/><use transform="matrix(0.05,0,0,0.05,8.950000000000001,0)" xlink:href="#aC"/><use transform="matrix(0.05,0,0,0.05,18.950000000000003,0)" xlink:href="#bg"/><use transform="matrix(0.05,0,0,0.05,33.900000000000006,0)" xlink:href="#av"/></g><g id="T"><use transform="matrix(0.03765432098765432,0,0,0.03765432098765432,0,0)" xlink:href="#aE"/><use transform="matrix(0.03765432098765432,0,0,0.03765432098765432,9.037037037037036,0)" xlink:href="#aC"/><use transform="matrix(0.03765432098765432,0,0,0.03765432098765432,16.5679012345679,0)" xlink:href="#az"/><use transform="matrix(0.03765432098765432,0,0,0.03765432098765432,24.098765432098762,0)" xlink:href="#aB"/></g><g id="U"><use transform="matrix(0.03765432098765432,0,0,0.03765432098765432,0,0)" xlink:href="#aB"/><use transform="matrix(0.03765432098765432,0,0,0.03765432098765432,7.530864197530864,0)" xlink:href="#ay"/><use transform="matrix(0.03765432098765432,0,0,0.03765432098765432,10.505555555555555,0)" xlink:href="#aD"/><use transform="matrix(0.03765432098765432,0,0,0.03765432098765432,14.986419753086421,0)" xlink:href="#aC"/><use transform="matrix(0.03765432098765432,0,0,0.03765432098765432,22.517283950617283,0)" xlink:href="#be"/><use transform="matrix(0.03765432098765432,0,0,0.03765432098765432,29.295061728395062,0)" xlink:href="#aI"/></g><g id="V"><use transform="matrix(0.03765432098765432,0,0,0.03765432098765432,0,0)" xlink:href="#aN"/><use transform="matrix(0.03765432098765432,0,0,0.03765432098765432,2.974691358024691,0)" xlink:href="#ay"/><use transform="matrix(0.03765432098765432,0,0,0.03765432098765432,5.949382716049382,0)" xlink:href="#az"/><use transform="matrix(0.03765432098765432,0,0,0.03765432098765432,13.480246913580245,0)" xlink:href="#bm"/></g><g id="W"><use transform="matrix(0.05,0,0,0.05,0,0)" xlink:href="#aW"/><use transform="matrix(0.05,0,0,0.05,14,0)" xlink:href="#av"/><use transform="matrix(0.05,0,0,0.05,24,0)" xlink:href="#aC"/><use transform="matrix(0.05,0,0,0.05,34,0)" xlink:href="#az"/></g><g id="X"><use transform="matrix(0.05,0,0,0.05,0,0)" xlink:href="#bk"/><use transform="matrix(0.05,0,0,0.05,12,0)" xlink:href="#aD"/><use transform="matrix(0.05,0,0,0.05,17.95,0)" xlink:href="#aJ"/><use transform="matrix(0.05,0,0,0.05,27.950000000000003,0)" xlink:href="#aG"/><use transform="matrix(0.05,0,0,0.05,40.9,0)" xlink:href="#aA"/><use transform="matrix(0.05,0,0,0.05,49.9,0)" xlink:href="#aC"/><use transform="matrix(0.05,0,0,0.05,59.900000000000006,0)" xlink:href="#aD"/></g><g id="Y"><use transform="matrix(0.05,0,0,0.05,0,0)" xlink:href="#aE"/><use transform="matrix(0.05,0,0,0.05,12,0)" xlink:href="#aC"/><use transform="matrix(0.05,0,0,0.05,22,0)" xlink:href="#aP"/><use transform="matrix(0.05,0,0,0.05,32,0)" xlink:href="#aD"/><use transform="matrix(0.05,0,0,0.05,37.95,0)" xlink:href="#be"/><use transform="matrix(0.05,0,0,0.05,46.95,0)" xlink:href="#ax"/></g><g id="Z"><use transform="matrix(0.05,0,0,0.05,0,0)" xlink:href="#aB"/><use transform="matrix(0.05,0,0,0.05,10,0)" xlink:href="#aJ"/><use transform="matrix(0.05,0,0,0.05,20,0)" xlink:href="#az"/><use transform="matrix(0.05,0,0,0.05,30,0)" xlink:href="#aC"/></g><g id="aa"><use transform="matrix(0.05,0,0,0.05,0,0)" xlink:href="#aM"/><use transform="matrix(0.05,0,0,0.05,14,0)" xlink:href="#aT"/><use transform="matrix(0.05,0,0,0.05,26,0)" xlink:href="#aS"/></g><g id="ab"><use transform="matrix(0.05,0,0,0.05,0,0)" xlink:href="#aL"/><use transform="matrix(0.05,0,0,0.05,12.950000000000001,0)" xlink:href="#aC"/><use transform="matrix(0.05,0,0,0.05,22.950000000000003,0)" xlink:href="#bc"/><use transform="matrix(0.05,0,0,0.05,32.95,0)" xlink:href="#aK"/><use transform="matrix(0.05,0,0,0.05,42.95,0)" xlink:href="#aC"/><use transform="matrix(0.05,0,0,0.05,52.95,0)" xlink:href="#aA"/><use transform="matrix(0.05,0,0,0.05,61.95,0)" xlink:href="#aI"/></g><g id="ac"><use transform="matrix(0.05,0,0,0.05,0,0)" xlink:href="#aG"/><use transform="matrix(0.05,0,0,0.05,12.950000000000001,0)" xlink:href="#ay"/><use transform="matrix(0.05,0,0,0.05,16.900000000000002,0)" xlink:href="#aI"/><use transform="matrix(0.05,0,0,0.05,21.900000000000002,0)" xlink:href="#ax"/></g><g id="ad"><use transform="matrix(0.05,0,0,0.05,0,0)" xlink:href="#aA"/><use transform="matrix(0.05,0,0,0.05,9,0)" xlink:href="#aC"/><use transform="matrix(0.05,0,0,0.05,19,0)" xlink:href="#aP"/><use transform="matrix(0.05,0,0,0.05,29,0)" xlink:href="#aD"/><use transform="matrix(0.05,0,0,0.05,34.95,0)" xlink:href="#be"/><use transform="matrix(0.05,0,0,0.05,43.95,0)" xlink:href="#ax"/><use transform="matrix(0.05,0,0,0.05,53.95,0)" xlink:href="#aC"/><use transform="matrix(0.05,0,0,0.05,63.95,0)" xlink:href="#aB"/></g><g id="ae"><use transform="matrix(0.05,0,0,0.05,0,0)" xlink:href="#aI"/><use transform="matrix(0.05,0,0,0.05,5,0)" xlink:href="#aC"/><use transform="matrix(0.05,0,0,0.05,15,0)" xlink:href="#aD"/><use transform="matrix(0.05,0,0,0.05,20.95,0)" xlink:href="#bg"/></g><g id="af"><use transform="matrix(0.05,0,0,0.05,0,0)" xlink:href="#aE"/><use transform="matrix(0.05,0,0,0.05,12,0)" xlink:href="#aC"/><use transform="matrix(0.05,0,0,0.05,22,0)" xlink:href="#az"/><use transform="matrix(0.05,0,0,0.05,32,0)" xlink:href="#aB"/></g><path d="M197 0v-115H63V0H30v-248h33v105h134v-105h34V0h-34" id="bo"/><g id="ag"><use transform="matrix(0.05,0,0,0.05,0,0)" xlink:href="#bo"/><use transform="matrix(0.05,0,0,0.05,12.950000000000001,0)" xlink:href="#aS"/><use transform="matrix(0.05,0,0,0.05,23.900000000000002,0)" xlink:href="#aS"/><use transform="matrix(0.05,0,0,0.05,34.85,0)" xlink:href="#aV"/></g><g id="ah"><use transform="matrix(0.05,0,0,0.05,0,0)" xlink:href="#aM"/><use transform="matrix(0.05,0,0,0.05,14,0)" xlink:href="#aT"/><use transform="matrix(0.05,0,0,0.05,26,0)" xlink:href="#aS"/></g><g id="ai"><use transform="matrix(0.05,0,0,0.05,0,0)" xlink:href="#aD"/><use transform="matrix(0.05,0,0,0.05,5.95,0)" xlink:href="#aC"/><use transform="matrix(0.05,0,0,0.05,15.949999999999998,0)" xlink:href="#bc"/><use transform="matrix(0.05,0,0,0.05,25.950000000000003,0)" xlink:href="#aK"/><use transform="matrix(0.05,0,0,0.05,35.95,0)" xlink:href="#aC"/><use transform="matrix(0.05,0,0,0.05,45.95,0)" xlink:href="#aA"/><use transform="matrix(0.05,0,0,0.05,54.95,0)" xlink:href="#aI"/></g><path d="M16-82v-28h88v28H16" id="bp"/><g id="aj"><use transform="matrix(0.05,0,0,0.05,0,0)" xlink:href="#aV"/><use transform="matrix(0.05,0,0,0.05,12,0)" xlink:href="#aD"/><use transform="matrix(0.05,0,0,0.05,17.95,0)" xlink:href="#aC"/><use transform="matrix(0.05,0,0,0.05,27.950000000000003,0)" xlink:href="#bp"/><use transform="matrix(0.05,0,0,0.05,33.9,0)" xlink:href="#aZ"/><use transform="matrix(0.05,0,0,0.05,46.85,0)" xlink:href="#aC"/><use transform="matrix(0.05,0,0,0.05,56.85,0)" xlink:href="#aH"/><use transform="matrix(0.05,0,0,0.05,61.85,0)" xlink:href="#ay"/><use transform="matrix(0.05,0,0,0.05,65.8,0)" xlink:href="#az"/><use transform="matrix(0.05,0,0,0.05,75.8,0)" xlink:href="#aC"/><use transform="matrix(0.05,0,0,0.05,85.8,0)" xlink:href="#aB"/></g><path d="M33 0v-38h34V0H33" id="bq"/><g id="ak"><use transform="matrix(0.05,0,0,0.05,0,0)" xlink:href="#bh"/><use transform="matrix(0.05,0,0,0.05,10.950000000000001,0)" xlink:href="#aP"/><use transform="matrix(0.05,0,0,0.05,20.950000000000003,0)" xlink:href="#aF"/><use transform="matrix(0.05,0,0,0.05,28.6,0)" xlink:href="#bq"/></g><g id="al"><use transform="matrix(0.031481481481481485,0,0,0.031481481481481485,0,0)" xlink:href="#aL"/><use transform="matrix(0.031481481481481485,0,0,0.031481481481481485,8.153703703703705,0)" xlink:href="#aC"/><use transform="matrix(0.031481481481481485,0,0,0.031481481481481485,14.450000000000003,0)" xlink:href="#bg"/><use transform="matrix(0.031481481481481485,0,0,0.031481481481481485,23.862962962962968,0)" xlink:href="#aJ"/><use transform="matrix(0.031481481481481485,0,0,0.031481481481481485,30.159259259259265,0)" xlink:href="#aF"/><use transform="matrix(0.031481481481481485,0,0,0.031481481481481485,35.82592592592593,0)" xlink:href="#aC"/></g><g id="am"><use transform="matrix(0.031481481481481485,0,0,0.031481481481481485,0,0)" xlink:href="#aA"/><use transform="matrix(0.031481481481481485,0,0,0.031481481481481485,5.666666666666667,0)" xlink:href="#aC"/><use transform="matrix(0.031481481481481485,0,0,0.031481481481481485,11.962962962962964,0)" xlink:href="#aN"/><use transform="matrix(0.031481481481481485,0,0,0.031481481481481485,14.450000000000001,0)" xlink:href="#aC"/><use transform="matrix(0.031481481481481485,0,0,0.031481481481481485,20.746296296296297,0)" xlink:href="#be"/><use transform="matrix(0.031481481481481485,0,0,0.031481481481481485,26.412962962962965,0)" xlink:href="#aI"/><use transform="matrix(0.031481481481481485,0,0,0.031481481481481485,29.561111111111114,0)" xlink:href="#aC"/><use transform="matrix(0.031481481481481485,0,0,0.031481481481481485,35.85740740740741,0)" xlink:href="#aB"/></g><g id="an"><use transform="matrix(0.031481481481481485,0,0,0.031481481481481485,0,0)" xlink:href="#aI"/><use transform="matrix(0.031481481481481485,0,0,0.031481481481481485,3.1481481481481484,0)" xlink:href="#aD"/><use transform="matrix(0.031481481481481485,0,0,0.031481481481481485,6.894444444444446,0)" xlink:href="#aP"/><use transform="matrix(0.031481481481481485,0,0,0.031481481481481485,13.190740740740743,0)" xlink:href="#be"/><use transform="matrix(0.031481481481481485,0,0,0.031481481481481485,18.85740740740741,0)" xlink:href="#bm"/></g><g id="ao"><use transform="matrix(0.05,0,0,0.05,0,0)" xlink:href="#aL"/><use transform="matrix(0.05,0,0,0.05,12.950000000000001,0)" xlink:href="#aT"/><use transform="matrix(0.05,0,0,0.05,24.950000000000003,0)" xlink:href="#aU"/><use transform="matrix(0.05,0,0,0.05,39.900000000000006,0)" xlink:href="#aW"/><use transform="matrix(0.05,0,0,0.05,53.900000000000006,0)" xlink:href="#aQ"/><use transform="matrix(0.05,0,0,0.05,65.9,0)" xlink:href="#aT"/></g><g id="ap"><use transform="matrix(0.05,0,0,0.05,0,0)" xlink:href="#aL"/><use transform="matrix(0.05,0,0,0.05,12.950000000000001,0)" xlink:href="#aC"/><use transform="matrix(0.05,0,0,0.05,22.950000000000003,0)" xlink:href="#bg"/><use transform="matrix(0.05,0,0,0.05,37.900000000000006,0)" xlink:href="#aJ"/><use transform="matrix(0.05,0,0,0.05,47.900000000000006,0)" xlink:href="#aF"/><use transform="matrix(0.05,0,0,0.05,56.900000000000006,0)" xlink:href="#aC"/></g><g id="aq"><use transform="matrix(0.05,0,0,0.05,0,0)" xlink:href="#aA"/><use transform="matrix(0.05,0,0,0.05,9,0)" xlink:href="#aP"/><use transform="matrix(0.05,0,0,0.05,19,0)" xlink:href="#ay"/><use transform="matrix(0.05,0,0,0.05,22.95,0)" xlink:href="#aB"/></g><g id="ar"><use transform="matrix(0.05,0,0,0.05,0,0)" xlink:href="#aH"/><use transform="matrix(0.05,0,0,0.05,5,0)" xlink:href="#ay"/><use transform="matrix(0.05,0,0,0.05,8.95,0)" xlink:href="#aN"/><use transform="matrix(0.05,0,0,0.05,12.899999999999999,0)" xlink:href="#aC"/></g><g id="as"><use transform="matrix(0.05,0,0,0.05,0,0)" xlink:href="#aH"/><use transform="matrix(0.05,0,0,0.05,5,0)" xlink:href="#aD"/><use transform="matrix(0.05,0,0,0.05,10.95,0)" xlink:href="#aJ"/><use transform="matrix(0.05,0,0,0.05,20.95,0)" xlink:href="#bg"/></g><g id="at"><use transform="matrix(0.05,0,0,0.05,0,0)" xlink:href="#aZ"/><use transform="matrix(0.05,0,0,0.05,12.950000000000001,0)" xlink:href="#aC"/><use transform="matrix(0.05,0,0,0.05,22.950000000000003,0)" xlink:href="#aF"/><use transform="matrix(0.05,0,0,0.05,31.950000000000003,0)" xlink:href="#ay"/><use transform="matrix(0.05,0,0,0.05,35.900000000000006,0)" xlink:href="#be"/><use transform="matrix(0.05,0,0,0.05,44.900000000000006,0)" xlink:href="#aC"/></g></defs></g></svg>